<svg width="64" height="64" viewBox="0 0 64 64" fill="none" xmlns="http://www.w3.org/2000/svg">
<circle cx="32" cy="32" r="30" fill="#5D4037"/>
<path d="M32 18C24.8203 18 19 23.8203 19 31C19 34.0274 20.1539 36.7803 22.0531 38.8947C25.2344 42.4938 31.7344 46.0156 32.0625 46.0781C32.125 46.0938 32.2031 46.0938 32.2656 46.0781C32.5938 46.0156 39.0938 42.4938 42.2656 38.9062C44.1562 36.7891 45.3125 34.0352 45.3125 31.0156C45.3125 23.8359 39.4922 18 32.3125 18H32Z" fill="#FEFDFB"/>
<path d="M32 24.5C31.2415 24.5 29.7493 25.1389 28.5938 27.4375C27.5625 29.4938 27.5 31.5469 27.5 32.3125C27.5 34.2031 28.6094 36.3125 32 36.3125C35.3906 36.3125 36.5 34.2031 36.5 32.3125C36.5 31.5469 36.4375 29.4938 35.4062 27.4375C34.2507 25.1389 32.7585 24.5 32 24.5Z" fill="#FADADD"/>
</svg>